<?xml version="1.0" encoding="utf-8"?>
<!-- Generator: Adobe Illustrator 16.0.0, SVG Export Plug-In . SVG Version: 6.00 Build 0)  -->
<!DOCTYPE svg PUBLIC "-//W3C//DTD SVG 1.1//EN" "http://www.w3.org/Graphics/SVG/1.1/DTD/svg11.dtd">
<svg version="1.1" id="Capa_1" xmlns="http://www.w3.org/2000/svg" xmlns:xlink="http://www.w3.org/1999/xlink" x="0px" y="0px"
	 width="595px" height="726px" viewBox="0 0 595 726" enable-background="new 0 0 595 726" xml:space="preserve">
<g>
	<g>
		<path fill-rule="evenodd" clip-rule="evenodd" fill="#00A1DF" d="M9.239,560.006c0.028,0.043,1.036,11.485,1.303,12.76
			c0.884,4.214,1.417,7.344,2.404,11.341c1.628,6.601,5.293,14.257,8.62,19.187c6.573,9.742,19.134,20.375,31.087,24.522
			c3.581,1.243,6.29,2.463,10.392,3.67c3.483,1.025,7.42,1.901,10.782,2.96c4.126,1.3,18.987,3.698,23.94,3.863
			c3.379,0.112,8.88,0.946,12.762,1.299c1.669,0.152,4.416,0.429,6.273,0.758c2.078,0.368,4.26,0.01,6.327,0.384
			c3.046,0.551,9.824,1.099,12.975,1.087c4.604-0.018,8.264,0.984,12.782,0.958c4.514-0.025,8.851,1.238,12.771,1.292
			c3.414,0.045,9.498,0.647,12.554,1.187c7.88,1.387,16.561,2.075,23.887,3.916c6.91,1.733,16.049,3.099,22.185,5.617
			c6.932,2.845,13.574,4.498,20.002,7.801c5.576,2.862,12.937,6.416,17.767,10.039c2.792,2.093,5.263,3.938,8.024,6.037
			c2.694,2.048,4.72,4.461,7.2,6.543c9.873,8.288,16.946,20.566,24.204,31.408h0.318c3.604-5.382,6.786-10.925,10.669-16.18
			c3.896-5.274,8.017-9.702,12.58-14.267c9.414-9.416,18.736-15.791,31.297-22.075c12.002-6.004,25.239-10.463,40.238-13.45
			c13.541-2.694,31.938-5.793,47.426-5.94c4.001-0.039,7.96-0.673,12.775-0.647c3.61,0.02,8.887-0.346,12.785-0.638
			c4.136-0.31,8.22-0.642,12.779-0.642c4.607,0,8.672-0.651,12.786-0.635c11.852,0.047,38.206-3.287,47.081-6.288
			c13.386-4.528,26.259-9.603,33.892-19.8c4.081-5.452,7.453-9.723,9.883-16.963c1.344-4.005,1.741-6.242,2.632-10.795
			c0.367-1.879,0.878-3.886,1.074-5.637c0.207-1.837-0.463-4.781,0.342-6.051V7.973H9.239V560.006z"/>
		<rect x="23.619" y="22.357" fill-rule="evenodd" clip-rule="evenodd" fill="#FDFEFF" width="548.037" height="101.968"/>
		<path fill-rule="evenodd" clip-rule="evenodd" fill="#FDFEFF" d="M256.255,653.982c0,0.907,9.88,6.901,11.309,7.868
			c3.956,2.679,7.4,5.476,10.979,8.518c3.369,2.863,17.69,16.903,18.616,20.373c0.489-0.13,14.822-16.564,18.087-18.986
			c3.487-2.586,6.554-5.719,10.155-8.381c1.463-1.081,11.063-6.818,11.063-7.793V139.029h-80.209V653.982z"/>
		<path fill-rule="evenodd" clip-rule="evenodd" fill="#FDFEFF" d="M416.992,632.246c2.839,0,6.628-0.643,9.555-0.989
			c2.909-0.345,6.875-0.205,9.812-0.736c3.726-0.674,16.293-1.177,20.254-1.155c13.304,0.074,27.621-1.914,40.588-1.914V139.029
			h-80.208V632.246z"/>
		<polygon fill-rule="evenodd" clip-rule="evenodd" fill="#FDFEFF" points="94.879,623.615 175.408,630.968 175.408,139.029 
			94.879,139.029 		"/>
		<path fill-rule="evenodd" clip-rule="evenodd" fill="#00A1DF" d="M418.609,116.63h18.532V82.428h5.753
			c12.869,0,14.366,7.581,20.373,14.462c1.977,2.264,13.812,19.74,15.097,19.74h21.411c-0.152-0.576-12.052-18.152-13.357-19.881
			c-2.193-2.905-4.922-6.658-7.324-9.296c-2.007-2.204-8.89-6.19-9.676-7.262c11.256-0.937,23.007-9.189,23.007-21.097v-4.156
			c0-3.339-2.292-8.534-3.773-10.607c-2.603-3.64-3.964-4.352-7.666-6.718c-5-3.199-16.901-3.451-25.31-3.451h-37.066V116.63z"/>
		<path fill-rule="evenodd" clip-rule="evenodd" fill="#00A1DF" d="M250.994,114.575l19.619-0.075l7.224-18.784h35.151
			c0.901,0,4.037,7.892,4.406,9.018c0.799,2.444,3.741,7.925,3.9,9.841h20.451c-3.025-5.718-6.541-14.356-9.073-20.649
			c-2.766-6.869-6.14-13.913-9.143-20.583c-3.08-6.837-6.083-13.735-9.049-20.675c-1.581-3.697-2.855-6.874-4.54-10.482
			c-0.679-1.45-3.973-10.08-4.944-10.08h-18.212c-1.371,0-4.331,8.089-4.985,9.717c-1.473,3.656-2.966,6.768-4.451,10.253
			c-3.066,7.211-5.808,13.919-8.784,20.94c-1.21,2.856-2.923,7.756-4.357,10.345c-1.148,2.07-3.592,7.947-4.403,10.299
			c-1.167,3.378-3.117,6.879-4.375,10.327C254.27,107.163,251.756,111.302,250.994,114.575z"/>
		<path fill-rule="evenodd" clip-rule="evenodd" fill="#00A1DF" d="M94.563,76.948c0,23.917,15.462,42.194,38.985,42.194h4.475
			c18.771,0,31.946-11.721,35.432-26.723l-18.177-5.243c-0.335,4.027-3.106,8.949-5.195,11.426
			c-1.861,2.207-7.346,5.806-11.097,5.841c-5.831,0.057-9.743,0.271-14.008-2.299c-3.825-2.307-6.201-4.569-8.269-8.671
			c-0.899-1.784-1.531-4.366-1.941-6.369c-0.625-3.048-0.308-4.847-0.78-7.851c-0.87-5.537,0.471-10.8,1.277-15.16
			c1.433-7.746,9.543-15.594,18.284-15.594h4.793c3.951,0,8.615,2.592,10.927,4.413c1.65,1.299,2.3,2.495,3.513,4.158
			c0.676,0.926,2.001,5.173,2.497,5.173c1.2,0,7.14-1.685,8.809-2.056c2.924-0.651,6.288-1.546,9.086-1.78
			c-2.092-8.98-8.635-16.58-16.197-20.237c-7.798-3.773-20.689-5.708-31.097-3.096C106.697,39.886,94.563,53.161,94.563,76.948z"/>
		<path fill-rule="evenodd" clip-rule="evenodd" fill="#FDFEFF" d="M438.211,68.864h22.688c7.542,0,13.741-2.868,13.741-10.229
			c0-5.3-4.496-9.909-9.588-9.909h-26.842V68.864z"/>
		<polygon fill-rule="evenodd" clip-rule="evenodd" fill="#FDFEFF" points="284.934,81.683 308.933,81.607 296.8,51.973 		"/>
	</g>
</g>
</svg>
