<?xml version="1.0" encoding="UTF-8" standalone="no"?>
<!-- Created with Inkscape (http://www.inkscape.org/) -->

<svg
   version="1.1"
   id="svg824"
   xml:space="preserve"
   width="564.80719"
   height="700"
   viewBox="0 0 564.80719 700"
   xmlns="http://www.w3.org/2000/svg"
   xmlns:svg="http://www.w3.org/2000/svg"><defs
     id="defs828" /><g
     id="g830"
     transform="matrix(1.3333333,0,0,-1.3333333,-645.29532,756.96438)"><g
       id="g1555"><path
         d="m 688.65417,51.489018 c -11.98313,4.854611 -43.24213,19.707194 -74.6816,52.745622 -51.44625,54.06484 -81.10449,133.1535 -85.76058,228.72075 -3.73571,76.6036 -23.32921,123.93155 -31.57663,140.72417 l -6.03849,12.28451 76.58916,75.20316 11.95786,-5.67214 c 11.14215,-5.28593 44.81943,-17.5939 116.6406,-17.69496 71.79772,0.10106 105.4732,12.40903 116.62076,17.69857 l 11.95425,5.66853 76.59096,-75.20316 -6.03668,-12.28451 C 886.66636,456.88333 867.07105,409.54816 863.33174,332.95539 858.68106,237.38814 829.02462,158.29948 777.57657,104.23825 746.14071,71.199821 714.87449,56.343629 702.89136,51.489018 l -7.1195,-2.887501 z"
         style="fill:#ffffff;fill-opacity:1;fill-rule:nonzero;stroke:none;stroke-width:1.80469"
         id="path1050" /><g
         id="g1548"><path
           d="m 695.77421,463.78247 c 56.51922,0 104.18103,-37.801 119.16716,-89.48907 l 64.1314,110.52993 -57.56594,56.52463 -1.4221,-0.67314 C 805.41262,533.71233 770.759,522.18579 702.30177,521.43504 L 666.72956,460.3301 c 9.31941,2.23601 19.03765,3.45237 29.04465,3.45237"
           style="fill:#ed192d;fill-opacity:1;fill-rule:nonzero;stroke:none;stroke-width:1.80469"
           id="path1054" /><path
           d="m 695.77421,215.59599 c -56.62751,0 -104.36151,37.94356 -119.25018,89.78503 l -22.8636,-39.27362 c 12.23218,-61.11215 36.92934,-112.26784 72.93106,-150.10132 8.60475,-9.04149 17.15176,-16.568845 25.22954,-22.852769 L 724.8748,219.06099 c -9.33926,-2.24504 -19.07555,-3.465 -29.10059,-3.465"
           style="fill:#ed192d;fill-opacity:1;fill-rule:nonzero;stroke:none;stroke-width:1.80469"
           id="path1058" /></g><path
         d="m 696.29847,54.408642 5.18848,2.102462 c 11.67814,4.731892 42.15751,19.228952 72.88955,51.525646 50.58721,53.1607 79.75458,131.1142 84.35112,225.42901 3.78082,77.56369 23.70819,125.66043 32.09999,142.74 l 4.39983,8.95306 -71.38444,70.09228 -8.71304,-4.13454 c -14.22816,-6.75134 -48.59483,-18.092 -118.83149,-18.19306 -70.24207,0.10106 -104.60514,11.44172 -118.8351,18.19126 l -8.71304,4.13454 -71.37902,-70.09048 4.39983,-8.95306 c 8.38999,-17.07776 28.31736,-65.17451 32.09638,-142.74 4.59834,-94.31661 33.76571,-172.26831 84.35112,-225.42901 30.73745,-32.298499 61.21502,-46.793754 72.89316,-51.525646 z m -9.68937,-7.971307 c -12.31158,4.989963 -44.42059,20.241382 -76.58194,54.041385 -52.36122,55.02314 -82.5338,135.32093 -87.25848,232.20922 -3.68336,75.59117 -22.92314,122.09978 -31.02439,138.58741 l -7.77279,15.81629 82.1115,80.62986 15.39399,-7.30358 c 10.8155,-5.12892 43.60307,-17.06874 114.31256,-17.1698 70.69324,0.10106 103.46818,12.04268 114.27826,17.17161 l 15.39399,7.30357 82.11512,-80.63166 -7.77099,-15.81629 C 891.70468,454.78592 872.4631,408.27008 868.77793,332.68794 864.05506,235.79965 833.88248,155.50186 781.52126,100.47872 749.35811,66.675107 717.24909,51.427298 704.93751,46.437335 l -9.1642,-3.714048 z"
         style="fill:#231f20;fill-opacity:1;fill-rule:nonzero;stroke:none;stroke-width:1.80469"
         id="path1078" /></g><g
       id="g1544"><path
         d="m 771.08547,305.95401 v 82.91098 c 9.29775,-14.13612 14.73889,-31.01717 14.73889,-49.17594 0,-27.38254 -14.73889,-33.73504 -14.73889,-33.73504 m 0,114.30534 c -5.58732,5.22276 -11.70882,9.86803 -18.2851,13.85278 V 409.1533 270.22299 245.26235 c 6.57628,3.98475 12.69778,8.63002 18.2851,13.85279 v 21.83492 c 0,0 35.11923,14.46457 35.11923,58.73899 0,31.78236 -13.5496,60.41193 -35.11923,80.5703"
         style="fill:#231f20;fill-opacity:1;fill-rule:nonzero;stroke:none;stroke-width:1.80469"
         id="path1062" /><path
         d="m 662.10757,423.14504 c 5.81832,2.35512 11.94162,4.0804 18.2851,5.17946 v 20.69797 c -6.27851,-0.87889 -12.38918,-2.27932 -18.2851,-4.17064 -44.47473,-14.27328 -76.76421,-56.0103 -76.76421,-105.16278 0,-49.15429 32.28948,-90.89312 76.76421,-105.16459 5.89592,-1.89312 12.00659,-3.29356 18.2851,-4.17244 v 20.69977 c -6.34348,1.09725 -12.46678,2.82253 -18.2851,5.17765 -33.01135,13.36733 -56.38387,45.71095 -56.38387,83.45961 0,37.74505 23.37252,70.09047 56.38387,83.45599"
         style="fill:#231f20;fill-opacity:1;fill-rule:nonzero;stroke:none;stroke-width:1.80469"
         id="path1066" /><path
         d="m 662.10757,348.83033 h -23.31116 c 2.48867,15.48062 11.08801,28.93276 23.31116,37.73603 z m 0,61.76906 c -26.51628,-12.64184 -44.92951,-39.63275 -44.92951,-70.91161 0,-26.4477 13.19227,-49.79134 33.28927,-64.02672 v 28.4094 c -5.9681,7.54901 -10.11166,16.58689 -11.72145,26.47477 h 23.36169 V 292.8092 268.77617 c 5.75876,-2.74493 11.86222,-4.87085 18.2851,-6.15037 v 21.41262 46.50681 18.2851 46.50682 21.41262 c -6.42288,-1.27952 -12.52634,-3.40545 -18.2851,-6.15038"
         style="fill:#231f20;fill-opacity:1;fill-rule:nonzero;stroke:none;stroke-width:1.80469"
         id="path1070" /><path
         d="m 709.56997,428.5656 c 4.74813,-0.7345 9.3934,-1.7722 13.86902,-3.22136 v -109.7106 c -3.75375,-4.31321 -8.49466,-7.74031 -13.86902,-9.9312 z m 16.13932,-138.08029 c 0.27792,0.16783 0.55765,0.33928 0.83377,0.51253 0.66051,0.41869 1.31562,0.84279 1.95628,1.28674 0.092,0.065 0.18408,0.12994 0.27612,0.19491 0.63344,0.44395 1.25245,0.90415 1.86424,1.37156 6.11067,4.74994 11.08259,11.30457 11.08439,21.41984 v 54.49076 0 55.73057 c 0,17.52172 -13.26806,20.33703 -26.51447,22.86359 -12.23579,2.33527 -23.92475,1.64588 -23.92475,1.64588 V 229.37135 c 1.49067,-0.0596 2.98315,-0.1137 4.49006,-0.1137 4.67414,0 9.27068,0.32485 13.79504,0.89152 v 53.59021 l 21.20689,-48.76267 c 5.93381,1.98877 11.65287,4.44856 17.0922,7.37215 z"
         style="fill:#231f20;fill-opacity:1;fill-rule:nonzero;stroke:none;stroke-width:1.80469"
         id="path1074" /></g></g></svg>
